<svg xmlns="http://www.w3.org/2000/svg" viewBox="0 0 32 32" id="freezer"><g data-name="Layer 2" fill="#f2b442" class="color000000 svgShape"><path d="M24.21,31H7.79A2.8,2.8,0,0,1,5,28.21V3.79A2.8,2.8,0,0,1,7.79,1H24.21A2.8,2.8,0,0,1,27,3.79V28.21A2.8,2.8,0,0,1,24.21,31ZM7.79,3A.79.79,0,0,0,7,3.79V28.21a.79.79,0,0,0,.79.79H24.21a.79.79,0,0,0,.79-.79V3.79A.79.79,0,0,0,24.21,3Z" fill="#f2b442" class="color000000 svgShape"></path><rect width="20" height="2" x="6" y="12" fill="#f2b442" class="color000000 svgShape"></rect><rect width="2" height="4" x="21.85" y="19.43" rx="1" ry="1" fill="#f2b442" class="color000000 svgShape"></rect><rect width="2" height="4" x="21.85" y="5.27" rx="1" ry="1" fill="#f2b442" class="color000000 svgShape"></rect></g></svg>
