<svg width="67" height="79" viewBox="0 0 67 79" fill="none" xmlns="http://www.w3.org/2000/svg">
<path d="M33.4645 78C44.3767 78 53.2228 69.1539 53.2228 58.2418C53.2228 47.3296 44.3767 38.4835 33.4645 38.4835C22.5523 38.4835 13.7063 47.3296 13.7063 58.2418C13.7063 69.1539 22.5523 78 33.4645 78Z" fill="#FFA654" stroke="black" stroke-width="2" stroke-linecap="round" stroke-linejoin="round"/>
<path d="M23.4401 64.1983C25.0449 64.1983 26.3457 62.8974 26.3457 61.2927C26.3457 59.6879 25.0449 58.3871 23.4401 58.3871C21.8354 58.3871 20.5345 59.6879 20.5345 61.2927C20.5345 62.8974 21.8354 64.1983 23.4401 64.1983Z" fill="black"/>
<path d="M36.5154 50.106C38.1202 50.106 39.4211 48.8051 39.4211 47.2004C39.4211 45.5956 38.1202 44.2948 36.5154 44.2948C34.9107 44.2948 33.6098 45.5956 33.6098 47.2004C33.6098 48.8051 34.9107 50.106 36.5154 50.106Z" fill="black"/>
<path d="M36.5154 59.9852C37.4783 59.9852 38.2587 59.2046 38.2587 58.2418C38.2587 57.2789 37.4783 56.4984 36.5154 56.4984C35.5526 56.4984 34.772 57.2789 34.772 58.2418C34.772 59.2046 35.5526 59.9852 36.5154 59.9852Z" fill="black"/>
<path d="M44.3606 56.9342C45.3234 56.9342 46.104 56.1537 46.104 55.1908C46.104 54.228 45.3234 53.4475 44.3606 53.4475C43.3977 53.4475 42.6172 54.228 42.6172 55.1908C42.6172 56.1537 43.3977 56.9342 44.3606 56.9342Z" fill="black"/>
<path d="M29.6872 70.0096C30.65 70.0096 31.4306 69.229 31.4306 68.2662C31.4306 67.3033 30.65 66.5228 29.6872 66.5228C28.7243 66.5228 27.9438 67.3033 27.9438 68.2662C27.9438 69.229 28.7243 70.0096 29.6872 70.0096Z" fill="black"/>
<path d="M26.0552 53.5927C27.018 53.5927 27.7986 52.8122 27.7986 51.8494C27.7986 50.8866 27.018 50.106 26.0552 50.106C25.0923 50.106 24.3118 50.8866 24.3118 51.8494C24.3118 52.8122 25.0923 53.5927 26.0552 53.5927Z" fill="black"/>
<rect x="15.1386" y="12.4731" width="37.7029" height="24.8583" fill="white"/>
<path d="M17.7308 19.4357C16.6854 17.5726 16.1239 15.5548 16.0812 13.508C16.5773 10.0629 18.6153 6.88571 21.8082 4.57982C25.0012 2.27393 29.1266 1 33.401 1C37.6753 1 41.8008 2.27393 44.9937 4.57982C48.1867 6.88571 50.2248 10.0629 50.7208 13.508C50.6526 15.5523 50.0923 17.566 49.0713 19.4357" fill="white"/>
<path d="M15.1386 35.6893C11.1655 35.1058 7.57188 33.4068 4.98703 30.8898C2.40217 28.3727 0.990818 25.198 1.00004 21.9216C1.00004 14.2729 7.36245 9.49242 16.7882 9.49242" fill="white"/>
<path d="M49.7782 9.49242C59.4396 9.49242 65.8019 14.2729 65.8019 21.9216C65.8112 25.198 64.3998 28.3727 61.8149 30.8898C59.2301 33.4068 55.6365 35.1058 51.6633 35.6893" fill="white"/>
<path d="M15.1386 35.6893L15.1386 50.2219H51.4277V35.6893" fill="white"/>
<path d="M17.7308 19.4357C16.6854 17.5726 16.1239 15.5548 16.0812 13.508C16.5773 10.0629 18.6153 6.88571 21.8082 4.57982C25.0012 2.27393 29.1266 1 33.401 1C37.6753 1 41.8008 2.27393 44.9937 4.57982C48.1867 6.88571 50.2248 10.0629 50.7208 13.508C50.6526 15.5523 50.0923 17.566 49.0713 19.4357M16.7882 9.49242C7.36245 9.49242 1.00004 14.2729 1.00004 21.9216C0.990818 25.198 2.40217 28.3727 4.98703 30.8898C7.57188 33.4068 11.1655 35.1058 15.1386 35.6893L15.1386 50.2219H51.4277V35.6893M49.7782 9.49242C59.4396 9.49242 65.8019 14.2729 65.8019 21.9216C65.8112 25.198 64.3998 28.3727 61.8149 30.8898C59.2301 33.4068 55.6365 35.1058 51.6633 35.6893M15.1386 42.9556H51.4277" stroke="black" stroke-width="2" stroke-linecap="round" stroke-linejoin="round"/>
<path d="M33.2832 42.9556V35.3068" stroke="black" stroke-width="2" stroke-linecap="round" stroke-linejoin="round"/>
<path d="M28.3607 63.9125C27.3148 64.0326 26.8391 64.1377 26.0387 64.4228C25.2949 64.6892 24.3171 65.2559 23.5469 65.8637C22.8824 66.3891 21.8441 67.4773 20.6397 68.8994C19.1484 70.663 18.3291 71.4585 17.4192 72.0176C16.581 72.5354 15.7466 72.8469 14.7121 73.0345C14.1798 73.1283 13.1226 73.1208 12.6129 73.0157C11.6388 72.8206 11.0385 72.4904 10.8007 72.0251C10.5137 71.4623 10.5364 70.7606 10.8573 70.2953C11.0876 69.9613 11.5596 69.6686 11.8654 69.6686C12.1863 69.6686 12.4279 69.9651 12.545 70.5017C12.5827 70.663 12.628 70.7943 12.6469 70.7943C12.7149 70.7943 12.6469 70.0101 12.5563 69.7249C12.2656 68.7943 11.5898 68.5992 10.4911 69.1283C9.89832 69.4135 9.53587 69.8675 9.34332 70.5579C9.23761 70.9369 9.23005 71.8262 9.32822 72.2503C9.75108 74.1302 11.1669 75.5711 13.3945 76.3966C15.724 77.2634 18.6613 77.316 22.754 76.5692C23.8187 76.3741 24.5021 76.209 25.378 75.9313C27.8547 75.1433 30.2522 73.9051 31.9587 72.5317C32.3929 72.1827 33.0272 71.5523 33.2311 71.2709C33.3142 71.1546 33.3934 71.0608 33.4048 71.057C33.4161 71.057 33.4878 71.1471 33.5671 71.2596C33.7483 71.5223 34.4997 72.2578 34.949 72.6142C36.9387 74.1902 40.0724 75.6724 42.7454 76.3066C43.7648 76.5467 45.5657 76.8432 46.7286 76.9632C49.0204 77.1996 51.0289 77.0983 52.5882 76.663C55.2651 75.9201 56.998 74.3516 57.4738 72.2503C57.5719 71.8262 57.5644 70.9369 57.4587 70.5579C57.2661 69.8675 56.9037 69.4135 56.3109 69.1283C55.8503 68.9069 55.5445 68.8281 55.2047 68.8506C54.9064 68.8694 54.7667 68.9294 54.5855 69.1133C54.3212 69.3797 54.174 69.8037 54.14 70.3891C54.1135 70.8731 54.1626 70.9219 54.257 70.5017C54.4156 69.77 54.7705 69.5223 55.2991 69.7662C56.1674 70.1677 56.4619 71.1658 55.9749 72.0739C55.6389 72.7006 54.5326 73.0945 53.1093 73.0983C51.7765 73.0983 50.5608 72.7456 49.3753 72.0139C48.5409 71.4998 47.6083 70.603 46.2755 69.0307C44.2519 66.6442 43.3004 65.7474 42.0054 65.0082C40.027 63.875 37.573 63.5785 35.7229 64.254C34.9792 64.5279 34.3486 64.9407 33.7785 65.5298L33.401 65.9163L33.0234 65.5298C31.9587 64.4303 30.5467 63.875 28.8704 63.8975C28.6514 63.8975 28.4248 63.9088 28.3607 63.9125Z" fill="black"/>
</svg>
