<svg width="250" height="250" viewBox="0 0 250 250" fill="none" xmlns="http://www.w3.org/2000/svg">
<rect width="250" height="250" fill="#EDEDED"/>
<path d="M32.3425 166.98H32.1425V177H29.9025V163.04H33.1225L36.7825 173.06H36.9825V163.04H39.2225V177H36.0025L32.3425 166.98ZM46.5547 177.24C45.768 177.24 45.0614 177.113 44.4347 176.86C43.8214 176.607 43.2947 176.247 42.8547 175.78C42.428 175.313 42.0947 174.747 41.8547 174.08C41.628 173.413 41.5147 172.667 41.5147 171.84C41.5147 171.013 41.628 170.267 41.8547 169.6C42.0947 168.933 42.428 168.367 42.8547 167.9C43.2947 167.433 43.8214 167.073 44.4347 166.82C45.0614 166.567 45.768 166.44 46.5547 166.44C47.328 166.44 48.028 166.567 48.6547 166.82C49.2814 167.073 49.808 167.433 50.2347 167.9C50.6747 168.367 51.008 168.933 51.2347 169.6C51.4747 170.267 51.5947 171.013 51.5947 171.84C51.5947 172.667 51.4747 173.413 51.2347 174.08C51.008 174.747 50.6747 175.313 50.2347 175.78C49.808 176.247 49.2814 176.607 48.6547 176.86C48.028 177.113 47.328 177.24 46.5547 177.24ZM46.5547 175.28C47.288 175.28 47.868 175.06 48.2947 174.62C48.7214 174.167 48.9347 173.507 48.9347 172.64V171.04C48.9347 170.173 48.7214 169.52 48.2947 169.08C47.868 168.627 47.288 168.4 46.5547 168.4C45.8214 168.4 45.2414 168.627 44.8147 169.08C44.388 169.52 44.1747 170.173 44.1747 171.04V172.64C44.1747 173.507 44.388 174.167 44.8147 174.62C45.2414 175.06 45.8214 175.28 46.5547 175.28ZM71.1791 165.08C70.5791 165.08 70.1524 164.953 69.8991 164.7C69.6591 164.447 69.5391 164.14 69.5391 163.78V163.3C69.5391 162.94 69.6591 162.633 69.8991 162.38C70.1524 162.127 70.5791 162 71.1791 162C71.7791 162 72.1991 162.127 72.4391 162.38C72.6924 162.633 72.8191 162.94 72.8191 163.3V163.78C72.8191 164.14 72.6924 164.447 72.4391 164.7C72.1991 164.953 71.7791 165.08 71.1791 165.08ZM66.4991 174.98H69.8991V168.7H66.4991V166.68H72.4591V174.98H75.6191V177H66.4991V174.98ZM77.2713 177V166.68H79.3913V168.1H79.5113C79.6713 167.647 79.8979 167.26 80.1913 166.94C80.4979 166.607 80.9246 166.44 81.4713 166.44C81.9913 166.44 82.4046 166.593 82.7113 166.9C83.0179 167.193 83.2179 167.613 83.3113 168.16H83.4113C83.5846 167.693 83.8379 167.293 84.1713 166.96C84.5179 166.613 85.0046 166.44 85.6313 166.44C86.3913 166.44 86.9379 166.713 87.2713 167.26C87.6046 167.807 87.7713 168.613 87.7713 169.68V177H85.6713V169.98C85.6713 169.38 85.5846 168.96 85.4113 168.72C85.2513 168.48 85.0046 168.36 84.6713 168.36C84.3646 168.36 84.1046 168.46 83.8913 168.66C83.6913 168.86 83.5913 169.167 83.5913 169.58V177H81.4713V169.98C81.4713 169.38 81.3913 168.96 81.2313 168.72C81.0713 168.48 80.8246 168.36 80.4913 168.36C80.1713 168.36 79.9046 168.46 79.6913 168.66C79.4913 168.86 79.3913 169.167 79.3913 169.58V177H77.2713ZM98.3234 177C97.6968 177 97.2101 176.847 96.8634 176.54C96.5301 176.22 96.3301 175.78 96.2634 175.22H96.1634C95.9768 175.86 95.6101 176.36 95.0634 176.72C94.5168 177.067 93.8434 177.24 93.0434 177.24C92.0034 177.24 91.1768 176.967 90.5634 176.42C89.9501 175.873 89.6434 175.113 89.6434 174.14C89.6434 172.06 91.1701 171.02 94.2234 171.02H96.0434V170.34C96.0434 169.687 95.8834 169.193 95.5634 168.86C95.2434 168.527 94.7234 168.36 94.0034 168.36C93.3501 168.36 92.8234 168.487 92.4234 168.74C92.0234 168.993 91.6834 169.32 91.4034 169.72L89.9434 168.48C90.2634 167.907 90.7768 167.427 91.4834 167.04C92.2034 166.64 93.1301 166.44 94.2634 166.44C95.6234 166.44 96.6834 166.76 97.4434 167.4C98.2168 168.027 98.6034 168.967 98.6034 170.22V175.08H99.8234V177H98.3234ZM93.9034 175.48C94.5168 175.48 95.0234 175.34 95.4234 175.06C95.8368 174.767 96.0434 174.373 96.0434 173.88V172.5H94.2834C92.8834 172.5 92.1834 172.94 92.1834 173.82V174.22C92.1834 174.633 92.3368 174.947 92.6434 175.16C92.9501 175.373 93.3701 175.48 93.9034 175.48ZM112.036 178.08C112.036 179.16 111.582 179.953 110.676 180.46C109.782 180.98 108.382 181.24 106.476 181.24C105.542 181.24 104.762 181.18 104.136 181.06C103.509 180.953 103.002 180.793 102.616 180.58C102.242 180.367 101.976 180.107 101.816 179.8C101.656 179.507 101.576 179.173 101.576 178.8C101.576 178.227 101.742 177.787 102.076 177.48C102.409 177.173 102.876 176.947 103.476 176.8V176.64C103.076 176.507 102.756 176.32 102.516 176.08C102.289 175.84 102.176 175.507 102.176 175.08C102.176 174.573 102.342 174.193 102.676 173.94C103.022 173.687 103.476 173.493 104.036 173.36V173.26C103.422 172.967 102.942 172.553 102.596 172.02C102.249 171.487 102.076 170.84 102.076 170.08C102.076 169.507 102.176 169 102.376 168.56C102.589 168.107 102.882 167.727 103.256 167.42C103.642 167.1 104.102 166.86 104.636 166.7C105.169 166.527 105.762 166.44 106.416 166.44C107.109 166.44 107.736 166.533 108.296 166.72V166.28C108.296 165.88 108.422 165.547 108.676 165.28C108.942 165.013 109.309 164.88 109.776 164.88H111.636V166.8H109.196V167.14C109.702 167.447 110.089 167.847 110.356 168.34C110.636 168.82 110.776 169.4 110.776 170.08C110.776 170.653 110.669 171.167 110.456 171.62C110.256 172.073 109.962 172.453 109.576 172.76C109.202 173.067 108.742 173.307 108.196 173.48C107.662 173.64 107.069 173.72 106.416 173.72C106.149 173.72 105.889 173.713 105.636 173.7C105.396 173.673 105.162 173.627 104.936 173.56C104.749 173.627 104.569 173.733 104.396 173.88C104.222 174.027 104.136 174.22 104.136 174.46C104.136 174.78 104.289 174.98 104.596 175.06C104.902 175.127 105.269 175.16 105.696 175.16H108.036C108.756 175.16 109.369 175.233 109.876 175.38C110.382 175.513 110.796 175.713 111.116 175.98C111.436 176.233 111.669 176.54 111.816 176.9C111.962 177.26 112.036 177.653 112.036 178.08ZM109.636 178.26C109.636 177.953 109.509 177.707 109.256 177.52C109.016 177.347 108.562 177.26 107.896 177.26H104.336C103.936 177.487 103.736 177.82 103.736 178.26C103.736 178.62 103.882 178.92 104.176 179.16C104.482 179.4 104.996 179.52 105.716 179.52H107.376C108.882 179.52 109.636 179.1 109.636 178.26ZM106.416 172.04C107.069 172.04 107.549 171.887 107.856 171.58C108.162 171.26 108.316 170.847 108.316 170.34V169.82C108.316 169.313 108.162 168.907 107.856 168.6C107.549 168.28 107.069 168.12 106.416 168.12C105.776 168.12 105.302 168.28 104.996 168.6C104.689 168.907 104.536 169.313 104.536 169.82V170.34C104.536 170.847 104.689 171.26 104.996 171.58C105.302 171.887 105.776 172.04 106.416 172.04ZM118.748 177.24C117.921 177.24 117.188 177.113 116.548 176.86C115.908 176.607 115.368 176.247 114.928 175.78C114.501 175.313 114.174 174.753 113.948 174.1C113.721 173.433 113.608 172.687 113.608 171.86C113.608 171.02 113.721 170.267 113.948 169.6C114.188 168.933 114.521 168.367 114.948 167.9C115.374 167.433 115.888 167.073 116.488 166.82C117.101 166.567 117.788 166.44 118.548 166.44C119.294 166.44 119.968 166.567 120.568 166.82C121.168 167.06 121.674 167.407 122.088 167.86C122.514 168.313 122.841 168.86 123.068 169.5C123.294 170.14 123.408 170.847 123.408 171.62V172.46H116.168V172.72C116.168 173.467 116.401 174.073 116.868 174.54C117.334 174.993 117.988 175.22 118.828 175.22C119.468 175.22 120.014 175.093 120.468 174.84C120.934 174.573 121.321 174.227 121.628 173.8L123.088 175.26C122.714 175.807 122.168 176.273 121.448 176.66C120.741 177.047 119.841 177.24 118.748 177.24ZM118.568 168.32C117.848 168.32 117.268 168.547 116.828 169C116.388 169.453 116.168 170.053 116.168 170.8V170.94H120.848V170.76C120.848 170.013 120.641 169.42 120.228 168.98C119.828 168.54 119.274 168.32 118.568 168.32ZM143.192 177C142.206 177 141.479 176.74 141.012 176.22C140.546 175.7 140.312 175.027 140.312 174.2V168.7H137.312V166.68H139.352C139.766 166.68 140.059 166.6 140.232 166.44C140.406 166.267 140.492 165.967 140.492 165.54V163.04H142.872V166.68H147.072V168.7H142.872V174.98H147.072V177H143.192ZM154.484 177.24C153.698 177.24 152.991 177.113 152.364 176.86C151.751 176.607 151.224 176.247 150.784 175.78C150.358 175.313 150.024 174.747 149.784 174.08C149.558 173.413 149.444 172.667 149.444 171.84C149.444 171.013 149.558 170.267 149.784 169.6C150.024 168.933 150.358 168.367 150.784 167.9C151.224 167.433 151.751 167.073 152.364 166.82C152.991 166.567 153.698 166.44 154.484 166.44C155.258 166.44 155.958 166.567 156.584 166.82C157.211 167.073 157.738 167.433 158.164 167.9C158.604 168.367 158.938 168.933 159.164 169.6C159.404 170.267 159.524 171.013 159.524 171.84C159.524 172.667 159.404 173.413 159.164 174.08C158.938 174.747 158.604 175.313 158.164 175.78C157.738 176.247 157.211 176.607 156.584 176.86C155.958 177.113 155.258 177.24 154.484 177.24ZM154.484 175.28C155.218 175.28 155.798 175.06 156.224 174.62C156.651 174.167 156.864 173.507 156.864 172.64V171.04C156.864 170.173 156.651 169.52 156.224 169.08C155.798 168.627 155.218 168.4 154.484 168.4C153.751 168.4 153.171 168.627 152.744 169.08C152.318 169.52 152.104 170.173 152.104 171.04V172.64C152.104 173.507 152.318 174.167 152.744 174.62C153.171 175.06 153.751 175.28 154.484 175.28ZM178.429 177.24C177.295 177.24 176.315 177.067 175.489 176.72C174.662 176.36 174.015 175.88 173.549 175.28L175.049 173.92C175.475 174.387 175.962 174.747 176.509 175C177.069 175.253 177.715 175.38 178.449 175.38C179.089 175.38 179.602 175.273 179.989 175.06C180.375 174.847 180.569 174.52 180.569 174.08C180.569 173.707 180.435 173.453 180.169 173.32C179.915 173.187 179.575 173.087 179.149 173.02L177.489 172.76C177.062 172.693 176.642 172.6 176.229 172.48C175.829 172.347 175.469 172.167 175.149 171.94C174.842 171.713 174.595 171.427 174.409 171.08C174.222 170.72 174.129 170.287 174.129 169.78C174.129 168.7 174.529 167.873 175.329 167.3C176.142 166.727 177.255 166.44 178.669 166.44C179.669 166.44 180.515 166.58 181.209 166.86C181.915 167.14 182.495 167.533 182.949 168.04L181.609 169.52C181.315 169.2 180.922 168.92 180.429 168.68C179.949 168.427 179.335 168.3 178.589 168.3C177.282 168.3 176.629 168.707 176.629 169.52C176.629 169.893 176.762 170.153 177.029 170.3C177.295 170.433 177.642 170.533 178.069 170.6L179.709 170.86C180.149 170.927 180.569 171.027 180.969 171.16C181.382 171.28 181.742 171.453 182.049 171.68C182.369 171.907 182.622 172.193 182.809 172.54C182.995 172.887 183.089 173.313 183.089 173.82C183.089 174.887 182.675 175.727 181.849 176.34C181.035 176.94 179.895 177.24 178.429 177.24ZM185.961 162.2H188.521V168.5H188.621C188.848 167.94 189.194 167.46 189.661 167.06C190.141 166.647 190.801 166.44 191.641 166.44C192.654 166.44 193.474 166.78 194.101 167.46C194.741 168.127 195.061 169.087 195.061 170.34V177H192.501V170.7C192.501 169.207 191.854 168.46 190.561 168.46C190.294 168.46 190.041 168.493 189.801 168.56C189.561 168.627 189.341 168.733 189.141 168.88C188.954 169.013 188.801 169.18 188.681 169.38C188.574 169.58 188.521 169.82 188.521 170.1V177H185.961V162.2ZM202.453 177.24C201.666 177.24 200.96 177.113 200.333 176.86C199.72 176.607 199.193 176.247 198.753 175.78C198.326 175.313 197.993 174.747 197.753 174.08C197.526 173.413 197.413 172.667 197.413 171.84C197.413 171.013 197.526 170.267 197.753 169.6C197.993 168.933 198.326 168.367 198.753 167.9C199.193 167.433 199.72 167.073 200.333 166.82C200.96 166.567 201.666 166.44 202.453 166.44C203.226 166.44 203.926 166.567 204.553 166.82C205.18 167.073 205.706 167.433 206.133 167.9C206.573 168.367 206.906 168.933 207.133 169.6C207.373 170.267 207.493 171.013 207.493 171.84C207.493 172.667 207.373 173.413 207.133 174.08C206.906 174.747 206.573 175.313 206.133 175.78C205.706 176.247 205.18 176.607 204.553 176.86C203.926 177.113 203.226 177.24 202.453 177.24ZM202.453 175.28C203.186 175.28 203.766 175.06 204.193 174.62C204.62 174.167 204.833 173.507 204.833 172.64V171.04C204.833 170.173 204.62 169.52 204.193 169.08C203.766 168.627 203.186 168.4 202.453 168.4C201.72 168.4 201.14 168.627 200.713 169.08C200.286 169.52 200.073 170.173 200.073 171.04V172.64C200.073 173.507 200.286 174.167 200.713 174.62C201.14 175.06 201.72 175.28 202.453 175.28ZM208.725 166.68H210.865L211.745 175.2H211.925L213.325 166.68H215.665L217.045 175.2H217.225L218.125 166.68H220.165L218.845 177H215.745L214.545 169.42H214.365L213.145 177H210.045L208.725 166.68Z" fill="#797979"/>
<path d="M59.2917 187.875V196H58.1997V187.875H55.1707V186.926H62.3207V187.875H59.2917ZM63.9146 186.38H64.9546V190.384H65.0066C65.076 190.219 65.1626 190.063 65.2666 189.916C65.3706 189.76 65.4963 189.626 65.6436 189.513C65.7996 189.4 65.9816 189.309 66.1896 189.24C66.3976 189.171 66.6403 189.136 66.9176 189.136C67.6196 189.136 68.183 189.361 68.6076 189.812C69.0323 190.254 69.2446 190.882 69.2446 191.697V196H68.2046V191.879C68.2046 191.264 68.0703 190.809 67.8016 190.514C67.533 190.211 67.1386 190.059 66.6186 190.059C66.4106 190.059 66.207 190.085 66.0076 190.137C65.8083 190.189 65.6306 190.267 65.4746 190.371C65.3186 190.475 65.193 190.609 65.0976 190.774C65.0023 190.939 64.9546 191.129 64.9546 191.346V196H63.9146V186.38ZM74.7515 187.81C74.4482 187.81 74.2359 187.749 74.1145 187.628C73.9932 187.498 73.9325 187.338 73.9325 187.147V186.939C73.9325 186.748 73.9932 186.592 74.1145 186.471C74.2359 186.341 74.4482 186.276 74.7515 186.276C75.0549 186.276 75.2672 186.341 75.3885 186.471C75.5099 186.592 75.5705 186.748 75.5705 186.939V187.147C75.5705 187.338 75.5099 187.498 75.3885 187.628C75.2672 187.749 75.0549 187.81 74.7515 187.81ZM71.8135 195.116H74.2315V190.176H71.8135V189.292H75.2715V195.116H77.5335V196H71.8135V195.116ZM82.2085 196.156C81.5065 196.156 80.8998 196.039 80.3885 195.805C79.8858 195.562 79.4568 195.242 79.1015 194.843L79.8035 194.232C80.1241 194.57 80.4751 194.83 80.8565 195.012C81.2378 195.194 81.6971 195.285 82.2345 195.285C82.7545 195.285 83.1791 195.194 83.5085 195.012C83.8465 194.821 84.0155 194.527 84.0155 194.128C84.0155 193.955 83.9808 193.812 83.9115 193.699C83.8508 193.578 83.7641 193.482 83.6515 193.413C83.5388 193.344 83.4131 193.292 83.2745 193.257C83.1358 193.214 82.9885 193.179 82.8325 193.153L81.7795 192.997C81.5455 192.962 81.2898 192.915 81.0125 192.854C80.7438 192.793 80.4968 192.698 80.2715 192.568C80.0461 192.429 79.8555 192.247 79.6995 192.022C79.5521 191.797 79.4785 191.502 79.4785 191.138C79.4785 190.8 79.5435 190.51 79.6735 190.267C79.8121 190.016 80.0028 189.808 80.2455 189.643C80.4881 189.47 80.7741 189.344 81.1035 189.266C81.4328 189.179 81.7925 189.136 82.1825 189.136C82.7891 189.136 83.3135 189.231 83.7555 189.422C84.2061 189.613 84.5918 189.877 84.9125 190.215L84.2365 190.852C84.1585 190.757 84.0588 190.661 83.9375 190.566C83.8248 190.462 83.6818 190.371 83.5085 190.293C83.3438 190.206 83.1488 190.137 82.9235 190.085C82.6981 190.033 82.4381 190.007 82.1435 190.007C81.6148 190.007 81.2075 190.098 80.9215 190.28C80.6441 190.462 80.5055 190.726 80.5055 191.073C80.5055 191.246 80.5358 191.394 80.5965 191.515C80.6658 191.628 80.7568 191.719 80.8695 191.788C80.9821 191.857 81.1078 191.914 81.2465 191.957C81.3938 191.992 81.5411 192.022 81.6885 192.048L82.7415 192.204C82.9841 192.239 83.2398 192.286 83.5085 192.347C83.7771 192.408 84.0241 192.507 84.2495 192.646C84.4748 192.776 84.6611 192.954 84.8085 193.179C84.9645 193.404 85.0425 193.699 85.0425 194.063C85.0425 194.73 84.7825 195.246 84.2625 195.61C83.7511 195.974 83.0665 196.156 82.2085 196.156ZM94.8213 195.116H96.7843V190.176H94.8213V189.292H97.8243V190.982H97.8893C98.028 190.453 98.288 190.042 98.6693 189.747C99.0593 189.444 99.5533 189.292 100.151 189.292H101.087V190.332H99.8263C99.2283 190.332 98.743 190.505 98.3703 190.852C98.0063 191.199 97.8243 191.654 97.8243 192.217V195.116H100.424V196H94.8213V195.116ZM105.632 196.156C105.147 196.156 104.709 196.074 104.319 195.909C103.938 195.744 103.609 195.51 103.331 195.207C103.063 194.895 102.855 194.527 102.707 194.102C102.56 193.669 102.486 193.188 102.486 192.659C102.486 192.122 102.56 191.636 102.707 191.203C102.863 190.77 103.076 190.401 103.344 190.098C103.613 189.786 103.934 189.548 104.306 189.383C104.688 189.218 105.108 189.136 105.567 189.136C106.018 189.136 106.425 189.218 106.789 189.383C107.162 189.548 107.478 189.777 107.738 190.072C107.998 190.358 108.198 190.7 108.336 191.099C108.475 191.498 108.544 191.935 108.544 192.412V192.906H103.578V193.218C103.578 193.513 103.626 193.786 103.721 194.037C103.817 194.288 103.951 194.505 104.124 194.687C104.306 194.869 104.523 195.012 104.774 195.116C105.034 195.211 105.32 195.259 105.632 195.259C106.083 195.259 106.473 195.155 106.802 194.947C107.132 194.739 107.383 194.453 107.556 194.089L108.323 194.609C108.124 195.06 107.79 195.432 107.322 195.727C106.863 196.013 106.3 196.156 105.632 196.156ZM105.567 189.994C105.281 189.994 105.017 190.046 104.774 190.15C104.532 190.254 104.319 190.397 104.137 190.579C103.964 190.761 103.825 190.978 103.721 191.229C103.626 191.472 103.578 191.74 103.578 192.035V192.126H107.426V191.983C107.426 191.688 107.379 191.42 107.283 191.177C107.197 190.934 107.071 190.726 106.906 190.553C106.75 190.371 106.555 190.232 106.321 190.137C106.096 190.042 105.845 189.994 105.567 189.994ZM113.544 196.156C113.059 196.156 112.625 196.074 112.244 195.909C111.871 195.736 111.555 195.497 111.295 195.194C111.035 194.891 110.836 194.522 110.697 194.089C110.567 193.656 110.502 193.175 110.502 192.646C110.502 192.117 110.571 191.636 110.71 191.203C110.849 190.77 111.048 190.401 111.308 190.098C111.568 189.786 111.884 189.548 112.257 189.383C112.63 189.218 113.054 189.136 113.531 189.136C114.181 189.136 114.71 189.279 115.117 189.565C115.524 189.851 115.823 190.224 116.014 190.683L115.182 191.125C115.061 190.778 114.857 190.51 114.571 190.319C114.294 190.128 113.947 190.033 113.531 190.033C113.228 190.033 112.955 190.085 112.712 190.189C112.478 190.284 112.279 190.423 112.114 190.605C111.949 190.787 111.824 191.004 111.737 191.255C111.659 191.506 111.62 191.779 111.62 192.074V193.218C111.62 193.513 111.659 193.786 111.737 194.037C111.824 194.288 111.949 194.505 112.114 194.687C112.279 194.869 112.482 195.012 112.725 195.116C112.968 195.211 113.245 195.259 113.557 195.259C114.008 195.259 114.38 195.155 114.675 194.947C114.97 194.739 115.204 194.453 115.377 194.089L116.118 194.596C115.919 195.047 115.607 195.419 115.182 195.714C114.766 196.009 114.22 196.156 113.544 196.156ZM121.521 187.81C121.218 187.81 121.005 187.749 120.884 187.628C120.763 187.498 120.702 187.338 120.702 187.147V186.939C120.702 186.748 120.763 186.592 120.884 186.471C121.005 186.341 121.218 186.276 121.521 186.276C121.824 186.276 122.037 186.341 122.158 186.471C122.279 186.592 122.34 186.748 122.34 186.939V187.147C122.34 187.338 122.279 187.498 122.158 187.628C122.037 187.749 121.824 187.81 121.521 187.81ZM118.583 195.116H121.001V190.176H118.583V189.292H122.041V195.116H124.303V196H118.583V195.116ZM126.235 189.292H127.275V190.384H127.327C127.76 189.552 128.449 189.136 129.394 189.136C130.217 189.136 130.859 189.444 131.318 190.059C131.786 190.674 132.02 191.537 132.02 192.646C132.02 193.755 131.786 194.618 131.318 195.233C130.859 195.848 130.217 196.156 129.394 196.156C128.449 196.156 127.76 195.74 127.327 194.908H127.275V198.6H126.235V189.292ZM128.991 195.233C129.598 195.233 130.066 195.051 130.395 194.687C130.733 194.314 130.902 193.825 130.902 193.218V192.074C130.902 191.467 130.733 190.982 130.395 190.618C130.066 190.245 129.598 190.059 128.991 190.059C128.757 190.059 128.536 190.089 128.328 190.15C128.12 190.211 127.938 190.302 127.782 190.423C127.626 190.536 127.5 190.679 127.405 190.852C127.318 191.017 127.275 191.212 127.275 191.437V193.855C127.275 194.08 127.318 194.28 127.405 194.453C127.5 194.618 127.626 194.761 127.782 194.882C127.938 194.995 128.12 195.081 128.328 195.142C128.536 195.203 128.757 195.233 128.991 195.233ZM136.812 196.156C136.327 196.156 135.889 196.074 135.499 195.909C135.118 195.744 134.788 195.51 134.511 195.207C134.242 194.895 134.034 194.527 133.887 194.102C133.74 193.669 133.666 193.188 133.666 192.659C133.666 192.122 133.74 191.636 133.887 191.203C134.043 190.77 134.255 190.401 134.524 190.098C134.793 189.786 135.113 189.548 135.486 189.383C135.867 189.218 136.288 189.136 136.747 189.136C137.198 189.136 137.605 189.218 137.969 189.383C138.342 189.548 138.658 189.777 138.918 190.072C139.178 190.358 139.377 190.7 139.516 191.099C139.655 191.498 139.724 191.935 139.724 192.412V192.906H134.758V193.218C134.758 193.513 134.806 193.786 134.901 194.037C134.996 194.288 135.131 194.505 135.304 194.687C135.486 194.869 135.703 195.012 135.954 195.116C136.214 195.211 136.5 195.259 136.812 195.259C137.263 195.259 137.653 195.155 137.982 194.947C138.311 194.739 138.563 194.453 138.736 194.089L139.503 194.609C139.304 195.06 138.97 195.432 138.502 195.727C138.043 196.013 137.479 196.156 136.812 196.156ZM136.747 189.994C136.461 189.994 136.197 190.046 135.954 190.15C135.711 190.254 135.499 190.397 135.317 190.579C135.144 190.761 135.005 190.978 134.901 191.229C134.806 191.472 134.758 191.74 134.758 192.035V192.126H138.606V191.983C138.606 191.688 138.558 191.42 138.463 191.177C138.376 190.934 138.251 190.726 138.086 190.553C137.93 190.371 137.735 190.232 137.501 190.137C137.276 190.042 137.024 189.994 136.747 189.994ZM149.659 186.38H150.699V190.384H150.751C150.82 190.219 150.907 190.063 151.011 189.916C151.115 189.76 151.24 189.626 151.388 189.513C151.544 189.4 151.726 189.309 151.934 189.24C152.142 189.171 152.384 189.136 152.662 189.136C153.364 189.136 153.927 189.361 154.352 189.812C154.776 190.254 154.989 190.882 154.989 191.697V196H153.949V191.879C153.949 191.264 153.814 190.809 153.546 190.514C153.277 190.211 152.883 190.059 152.363 190.059C152.155 190.059 151.951 190.085 151.752 190.137C151.552 190.189 151.375 190.267 151.219 190.371C151.063 190.475 150.937 190.609 150.842 190.774C150.746 190.939 150.699 191.129 150.699 191.346V196H149.659V186.38ZM162.615 196C162.207 196 161.917 195.896 161.744 195.688C161.57 195.48 161.462 195.22 161.419 194.908H161.354C161.206 195.298 160.968 195.606 160.639 195.831C160.318 196.048 159.885 196.156 159.339 196.156C158.637 196.156 158.078 195.974 157.662 195.61C157.246 195.246 157.038 194.748 157.038 194.115C157.038 193.491 157.263 193.01 157.714 192.672C158.173 192.334 158.91 192.165 159.924 192.165H161.354V191.502C161.354 191.008 161.215 190.64 160.938 190.397C160.66 190.146 160.266 190.02 159.755 190.02C159.304 190.02 158.936 190.111 158.65 190.293C158.364 190.466 158.134 190.705 157.961 191.008L157.259 190.488C157.345 190.315 157.462 190.146 157.61 189.981C157.757 189.816 157.939 189.673 158.156 189.552C158.372 189.422 158.619 189.322 158.897 189.253C159.174 189.175 159.482 189.136 159.82 189.136C160.608 189.136 161.232 189.335 161.692 189.734C162.16 190.133 162.394 190.687 162.394 191.398V195.09H163.33V196H162.615ZM159.521 195.285C159.789 195.285 160.032 195.255 160.249 195.194C160.474 195.125 160.669 195.038 160.834 194.934C160.998 194.821 161.124 194.691 161.211 194.544C161.306 194.388 161.354 194.223 161.354 194.05V192.945H159.924C159.3 192.945 158.845 193.032 158.559 193.205C158.273 193.378 158.13 193.63 158.13 193.959V194.232C158.13 194.579 158.251 194.843 158.494 195.025C158.745 195.198 159.087 195.285 159.521 195.285ZM167.953 196.156C167.251 196.156 166.644 196.039 166.133 195.805C165.63 195.562 165.201 195.242 164.846 194.843L165.548 194.232C165.868 194.57 166.219 194.83 166.601 195.012C166.982 195.194 167.441 195.285 167.979 195.285C168.499 195.285 168.923 195.194 169.253 195.012C169.591 194.821 169.76 194.527 169.76 194.128C169.76 193.955 169.725 193.812 169.656 193.699C169.595 193.578 169.508 193.482 169.396 193.413C169.283 193.344 169.157 193.292 169.019 193.257C168.88 193.214 168.733 193.179 168.577 193.153L167.524 192.997C167.29 192.962 167.034 192.915 166.757 192.854C166.488 192.793 166.241 192.698 166.016 192.568C165.79 192.429 165.6 192.247 165.444 192.022C165.296 191.797 165.223 191.502 165.223 191.138C165.223 190.8 165.288 190.51 165.418 190.267C165.556 190.016 165.747 189.808 165.99 189.643C166.232 189.47 166.518 189.344 166.848 189.266C167.177 189.179 167.537 189.136 167.927 189.136C168.533 189.136 169.058 189.231 169.5 189.422C169.95 189.613 170.336 189.877 170.657 190.215L169.981 190.852C169.903 190.757 169.803 190.661 169.682 190.566C169.569 190.462 169.426 190.371 169.253 190.293C169.088 190.206 168.893 190.137 168.668 190.085C168.442 190.033 168.182 190.007 167.888 190.007C167.359 190.007 166.952 190.098 166.666 190.28C166.388 190.462 166.25 190.726 166.25 191.073C166.25 191.246 166.28 191.394 166.341 191.515C166.41 191.628 166.501 191.719 166.614 191.788C166.726 191.857 166.852 191.914 166.991 191.957C167.138 191.992 167.285 192.022 167.433 192.048L168.486 192.204C168.728 192.239 168.984 192.286 169.253 192.347C169.521 192.408 169.768 192.507 169.994 192.646C170.219 192.776 170.405 192.954 170.553 193.179C170.709 193.404 170.787 193.699 170.787 194.063C170.787 194.73 170.527 195.246 170.007 195.61C169.495 195.974 168.811 196.156 167.953 196.156ZM180.838 196V189.292H181.878V190.384H181.93C182 190.219 182.086 190.063 182.19 189.916C182.294 189.76 182.42 189.626 182.567 189.513C182.723 189.4 182.905 189.309 183.113 189.24C183.321 189.171 183.564 189.136 183.841 189.136C184.543 189.136 185.107 189.361 185.531 189.812C185.956 190.254 186.168 190.882 186.168 191.697V196H185.128V191.879C185.128 191.264 184.994 190.809 184.725 190.514C184.457 190.211 184.062 190.059 183.542 190.059C183.334 190.059 183.131 190.085 182.931 190.137C182.732 190.189 182.554 190.267 182.398 190.371C182.242 190.475 182.117 190.609 182.021 190.774C181.926 190.939 181.878 191.129 181.878 191.346V196H180.838ZM191.259 196.156C190.791 196.156 190.367 196.074 189.985 195.909C189.613 195.744 189.292 195.51 189.023 195.207C188.763 194.895 188.564 194.527 188.425 194.102C188.287 193.669 188.217 193.183 188.217 192.646C188.217 192.117 188.287 191.636 188.425 191.203C188.564 190.77 188.763 190.401 189.023 190.098C189.292 189.786 189.613 189.548 189.985 189.383C190.367 189.218 190.791 189.136 191.259 189.136C191.727 189.136 192.148 189.218 192.52 189.383C192.902 189.548 193.222 189.786 193.482 190.098C193.751 190.401 193.955 190.77 194.093 191.203C194.232 191.636 194.301 192.117 194.301 192.646C194.301 193.183 194.232 193.669 194.093 194.102C193.955 194.527 193.751 194.895 193.482 195.207C193.222 195.51 192.902 195.744 192.52 195.909C192.148 196.074 191.727 196.156 191.259 196.156ZM191.259 195.259C191.84 195.259 192.308 195.086 192.663 194.739C193.019 194.392 193.196 193.855 193.196 193.127V192.165C193.196 191.437 193.019 190.9 192.663 190.553C192.308 190.206 191.84 190.033 191.259 190.033C190.679 190.033 190.211 190.206 189.855 190.553C189.5 190.9 189.322 191.437 189.322 192.165V193.127C189.322 193.855 189.5 194.392 189.855 194.739C190.211 195.086 190.679 195.259 191.259 195.259ZM105.931 204.81C105.628 204.81 105.416 204.749 105.294 204.628C105.173 204.498 105.112 204.338 105.112 204.147V203.939C105.112 203.748 105.173 203.592 105.294 203.471C105.416 203.341 105.628 203.276 105.931 203.276C106.235 203.276 106.447 203.341 106.568 203.471C106.69 203.592 106.75 203.748 106.75 203.939V204.147C106.75 204.338 106.69 204.498 106.568 204.628C106.447 204.749 106.235 204.81 105.931 204.81ZM102.993 212.116H105.411V207.176H102.993V206.292H106.451V212.116H108.713V213H102.993V212.116ZM110.112 213V206.292H111.074V207.072H111.126C111.23 206.812 111.377 206.591 111.568 206.409C111.759 206.227 112.04 206.136 112.413 206.136C112.803 206.136 113.093 206.236 113.284 206.435C113.475 206.626 113.592 206.877 113.635 207.189H113.674C113.795 206.886 113.969 206.634 114.194 206.435C114.419 206.236 114.731 206.136 115.13 206.136C115.676 206.136 116.04 206.327 116.222 206.708C116.413 207.089 116.508 207.635 116.508 208.346V213H115.546V208.515C115.546 207.943 115.485 207.549 115.364 207.332C115.251 207.107 115.039 206.994 114.727 206.994C114.45 206.994 114.224 207.085 114.051 207.267C113.878 207.44 113.791 207.709 113.791 208.073V213H112.829V208.515C112.829 207.943 112.768 207.549 112.647 207.332C112.534 207.107 112.326 206.994 112.023 206.994C111.746 206.994 111.516 207.085 111.334 207.267C111.161 207.44 111.074 207.709 111.074 208.073V213H110.112ZM123.64 213C123.233 213 122.942 212.896 122.769 212.688C122.596 212.48 122.487 212.22 122.444 211.908H122.379C122.232 212.298 121.993 212.606 121.664 212.831C121.343 213.048 120.91 213.156 120.364 213.156C119.662 213.156 119.103 212.974 118.687 212.61C118.271 212.246 118.063 211.748 118.063 211.115C118.063 210.491 118.288 210.01 118.739 209.672C119.198 209.334 119.935 209.165 120.949 209.165H122.379V208.502C122.379 208.008 122.24 207.64 121.963 207.397C121.686 207.146 121.291 207.02 120.78 207.02C120.329 207.02 119.961 207.111 119.675 207.293C119.389 207.466 119.159 207.705 118.986 208.008L118.284 207.488C118.371 207.315 118.488 207.146 118.635 206.981C118.782 206.816 118.964 206.673 119.181 206.552C119.398 206.422 119.645 206.322 119.922 206.253C120.199 206.175 120.507 206.136 120.845 206.136C121.634 206.136 122.258 206.335 122.717 206.734C123.185 207.133 123.419 207.687 123.419 208.398V212.09H124.355V213H123.64ZM120.546 212.285C120.815 212.285 121.057 212.255 121.274 212.194C121.499 212.125 121.694 212.038 121.859 211.934C122.024 211.821 122.149 211.691 122.236 211.544C122.331 211.388 122.379 211.223 122.379 211.05V209.945H120.949C120.325 209.945 119.87 210.032 119.584 210.205C119.298 210.378 119.155 210.63 119.155 210.959V211.232C119.155 211.579 119.276 211.843 119.519 212.025C119.77 212.198 120.113 212.285 120.546 212.285ZM132.293 213.767C132.293 214.443 132.011 214.941 131.448 215.262C130.885 215.591 130.04 215.756 128.913 215.756C127.83 215.756 127.05 215.613 126.573 215.327C126.105 215.041 125.871 214.629 125.871 214.092C125.871 213.728 125.966 213.446 126.157 213.247C126.348 213.048 126.616 212.9 126.963 212.805V212.649C126.772 212.554 126.625 212.432 126.521 212.285C126.417 212.138 126.365 211.951 126.365 211.726C126.365 211.379 126.478 211.119 126.703 210.946C126.937 210.773 127.227 210.643 127.574 210.556V210.504C127.158 210.322 126.833 210.053 126.599 209.698C126.374 209.343 126.261 208.927 126.261 208.45C126.261 208.112 126.322 207.8 126.443 207.514C126.564 207.228 126.738 206.985 126.963 206.786C127.197 206.578 127.474 206.418 127.795 206.305C128.116 206.192 128.471 206.136 128.861 206.136C129.364 206.136 129.806 206.227 130.187 206.409V206.292C130.187 206.032 130.248 205.815 130.369 205.642C130.49 205.469 130.698 205.382 130.993 205.382H132.228V206.292H130.72V206.747C130.963 206.955 131.149 207.202 131.279 207.488C131.409 207.774 131.474 208.095 131.474 208.45C131.474 208.788 131.409 209.1 131.279 209.386C131.158 209.672 130.984 209.919 130.759 210.127C130.534 210.326 130.256 210.482 129.927 210.595C129.606 210.708 129.251 210.764 128.861 210.764C128.748 210.764 128.64 210.76 128.536 210.751C128.432 210.742 128.328 210.729 128.224 210.712C128.12 210.729 128.012 210.76 127.899 210.803C127.786 210.838 127.682 210.89 127.587 210.959C127.492 211.02 127.414 211.093 127.353 211.18C127.292 211.267 127.262 211.366 127.262 211.479C127.262 211.678 127.362 211.813 127.561 211.882C127.76 211.943 128.02 211.973 128.341 211.973H129.823C130.69 211.973 131.318 212.138 131.708 212.467C132.098 212.788 132.293 213.221 132.293 213.767ZM131.318 213.819C131.318 213.55 131.21 213.334 130.993 213.169C130.776 213.013 130.399 212.935 129.862 212.935H127.535C127.084 213.117 126.859 213.42 126.859 213.845C126.859 214.14 126.976 214.391 127.21 214.599C127.444 214.816 127.834 214.924 128.38 214.924H129.394C130.001 214.924 130.473 214.829 130.811 214.638C131.149 214.456 131.318 214.183 131.318 213.819ZM128.861 209.958C129.381 209.958 129.762 209.837 130.005 209.594C130.256 209.351 130.382 209.031 130.382 208.632V208.255C130.382 207.856 130.256 207.54 130.005 207.306C129.762 207.063 129.381 206.942 128.861 206.942C128.341 206.942 127.96 207.063 127.717 207.306C127.474 207.54 127.353 207.856 127.353 208.255V208.632C127.353 209.031 127.474 209.351 127.717 209.594C127.96 209.837 128.341 209.958 128.861 209.958ZM136.812 213.156C136.327 213.156 135.889 213.074 135.499 212.909C135.118 212.744 134.788 212.51 134.511 212.207C134.242 211.895 134.034 211.527 133.887 211.102C133.74 210.669 133.666 210.188 133.666 209.659C133.666 209.122 133.74 208.636 133.887 208.203C134.043 207.77 134.255 207.401 134.524 207.098C134.793 206.786 135.113 206.548 135.486 206.383C135.867 206.218 136.288 206.136 136.747 206.136C137.198 206.136 137.605 206.218 137.969 206.383C138.342 206.548 138.658 206.777 138.918 207.072C139.178 207.358 139.377 207.7 139.516 208.099C139.655 208.498 139.724 208.935 139.724 209.412V209.906H134.758V210.218C134.758 210.513 134.806 210.786 134.901 211.037C134.996 211.288 135.131 211.505 135.304 211.687C135.486 211.869 135.703 212.012 135.954 212.116C136.214 212.211 136.5 212.259 136.812 212.259C137.263 212.259 137.653 212.155 137.982 211.947C138.311 211.739 138.563 211.453 138.736 211.089L139.503 211.609C139.304 212.06 138.97 212.432 138.502 212.727C138.043 213.013 137.479 213.156 136.812 213.156ZM136.747 206.994C136.461 206.994 136.197 207.046 135.954 207.15C135.711 207.254 135.499 207.397 135.317 207.579C135.144 207.761 135.005 207.978 134.901 208.229C134.806 208.472 134.758 208.74 134.758 209.035V209.126H138.606V208.983C138.606 208.688 138.558 208.42 138.463 208.177C138.376 207.934 138.251 207.726 138.086 207.553C137.93 207.371 137.735 207.232 137.501 207.137C137.276 207.042 137.024 206.994 136.747 206.994ZM144.49 213.117C144.135 213.117 143.883 213.043 143.736 212.896C143.597 212.749 143.528 212.562 143.528 212.337V212.103C143.528 211.878 143.597 211.691 143.736 211.544C143.883 211.397 144.135 211.323 144.49 211.323C144.845 211.323 145.092 211.397 145.231 211.544C145.378 211.691 145.452 211.878 145.452 212.103V212.337C145.452 212.562 145.378 212.749 145.231 212.896C145.092 213.043 144.845 213.117 144.49 213.117Z" fill="#797979"/>
<path d="M97.1783 80.2636C95.4177 76.3967 94.472 72.2087 94.4001 67.9604C95.2355 60.8102 98.6679 54.2159 104.046 49.43C109.423 44.6441 116.371 42 123.57 42C130.769 42 137.717 44.6441 143.095 49.43C148.473 54.2159 151.905 60.8102 152.741 67.9604C152.626 72.2034 151.682 76.383 149.963 80.2636" stroke="#706B6B" stroke-width="2.5" stroke-linecap="round" stroke-linejoin="round"/>
<path d="M92.8126 113.998C86.1209 112.787 80.0685 109.261 75.715 104.037C71.3616 98.8124 68.9845 92.2233 69.0001 85.423C69.0001 69.548 79.7157 59.6261 95.5907 59.6261" stroke="#706B6B" stroke-width="2.5" stroke-linecap="round" stroke-linejoin="round"/>
<path d="M151.153 59.6261C167.425 59.6261 178.141 69.548 178.141 85.423C178.156 92.2233 175.779 98.8124 171.426 104.037C167.072 109.261 161.02 112.787 154.328 113.998" stroke="#706B6B" stroke-width="2.5" stroke-linecap="round" stroke-linejoin="round"/>
<path d="M92.8125 113.998V144.16H153.931V113.998" stroke="#706B6B" stroke-width="2.5" stroke-linecap="round" stroke-linejoin="round"/>
<path d="M92.8125 129.079H153.931" stroke="#706B6B" stroke-width="2.5" stroke-linecap="round" stroke-linejoin="round"/>
<path d="M123.372 129.079V113.204" stroke="#706B6B" stroke-width="2.5" stroke-linecap="round" stroke-linejoin="round"/>
</svg>
