<svg width="24" height="31" viewBox="0 0 24 31" fill="none" xmlns="http://www.w3.org/2000/svg">
<path d="M22.3 1V19.2H15.6V7.70001C15.6 5.92306 16.3059 4.21887 17.5623 2.96237C18.8188 1.70588 20.523 1 22.3 1Z" stroke="#F2B442" stroke-width="1.5" stroke-linecap="round" stroke-linejoin="round"/>
<path d="M18.4 19.1H22.3V27.5C22.3 28.0039 22.0998 28.4872 21.7435 28.8435C21.3872 29.1998 20.9039 29.4 20.4 29.4H20.3C19.7961 29.4 19.3128 29.1998 18.9565 28.8435C18.6002 28.4872 18.4 28.0039 18.4 27.5V19.1Z" stroke="#F2B442" stroke-width="1.5" stroke-linecap="round" stroke-linejoin="round"/>
<path d="M5.60004 29.4C4.99004 29.4 4.40503 29.1577 3.97369 28.7263C3.54236 28.295 3.30005 27.71 3.30005 27.1L4.30005 14.6H7.00003L8.00003 27.1C8.00032 27.4106 7.93771 27.7181 7.81592 28.0039C7.69413 28.2897 7.51569 28.5478 7.29141 28.7628C7.06713 28.9777 6.80165 29.145 6.51096 29.2545C6.22026 29.364 5.91039 29.4135 5.60004 29.4Z" stroke="#F2B442" stroke-width="1.5" stroke-linecap="round" stroke-linejoin="round"/>
<path d="M10.1 10.1C9.93785 11.1908 9.38921 12.1871 8.55405 12.9073C7.71889 13.6274 6.65281 14.0236 5.55002 14.0236C4.44722 14.0236 3.38112 13.6274 2.54596 12.9073C1.7108 12.1871 1.16216 11.1908 1 10.1H10.1Z" stroke="#F2B442" stroke-width="1.5" stroke-linecap="round" stroke-linejoin="round"/>
<path d="M1 1.79999V10.1" stroke="#F2B442" stroke-width="1.5" stroke-linecap="round" stroke-linejoin="round"/>
<path d="M5.5 1.79999V9.89999" stroke="#F2B442" stroke-width="1.5" stroke-linecap="round" stroke-linejoin="round"/>
<path d="M10.1 1.79999V10.1" stroke="#F2B442" stroke-width="1.5" stroke-linecap="round" stroke-linejoin="round"/>
</svg>
